<?xml version="1.0" encoding="utf-8"?>
<svg version="1.1" id="Main" xmlns="http://www.w3.org/2000/svg" xmlns:xlink="http://www.w3.org/1999/xlink" x="0px" y="0px"
	 viewBox="0 0 1000 1000" style="enable-background:new 0 0 1000 1000;" xml:space="preserve">
<style type="text/css">
	.st0{fill:#040000;}
	.st1{fill:#1E5D94;}
	.st2{fill:#FFFFFF;}
	.st3{fill:#FEFEFF;}
	.st4{fill:#1F5D94;}
	.st5{fill:#1869AA;}
	.st6{fill:#1E6CAA;}
	.st7{fill:#F6F6F9;}
	.st8{fill:#F4F6F9;}
	.st9{fill:#FDFDFE;}
	.st10{fill:#FCFDFE;}
	.st11{fill:#1B6AA9;}
</style>
<g>
	<path class="st0" d="M705.99,499.26c0.02,12.11-1.09,22.71-4.45,32.93c-1.73,5.25-4.01,10.33-6.13,15.45
		c-39.83,95.8-79.68,191.59-119.53,287.38c-18.1,43.52-36.21,87.03-54.32,130.55c-1.29,3.11-2.8,6.1-4.83,8.81
		c-1.58,2.12-3.38,4.05-5.6,5.52c-6.44,4.27-13.07,4.55-19.82,0.74c-3.39-1.91-5.96-4.7-8.15-7.84c-1.93-2.76-3.42-5.77-4.71-8.88
		c-14.67-35.3-29.35-70.6-44.04-105.9c-44.57-107.1-89.13-214.21-133.73-321.3c-4.04-9.7-6.06-19.8-6.53-30.24
		c-0.45-9.97,0.08-19.86,2.55-29.6c0.97-3.83,2.27-7.54,3.78-11.18c27.37-66.05,54.76-132.09,82.12-198.14
		c31.77-76.7,63.51-153.42,95.27-230.12c1.62-3.92,3.43-7.75,6-11.16c2.96-3.93,6.54-7.09,11.3-8.65
		c6.03-1.97,11.54-0.76,16.54,2.95c2.73,2.02,4.95,4.57,6.63,7.52c1.15,2.03,2.26,4.1,3.15,6.24
		c32.95,79.53,65.86,159.07,98.8,238.61c26.41,63.76,52.84,127.51,79.27,191.26c3.1,7.48,4.88,15.26,5.71,23.3
		C705.72,491.89,706.04,496.25,705.99,499.26z"/>
	<path class="st1" d="M313.44,501.49c-0.2-11.24,1.93-21.37,6.1-31.25c11.69-27.73,23.04-55.6,34.56-83.4
		c14.54-35.09,29.12-70.16,43.66-105.24c11.52-27.8,22.98-55.62,34.49-83.43c13.64-32.92,27.31-65.83,40.96-98.75
		c7.5-18.08,14.96-36.18,22.45-54.26c1.06-2.56,2.1-5.15,3.8-7.39c0.69-0.91,1.51-0.94,2.09,0.04c0.75,1.25,1.47,2.53,2.03,3.87
		c10.4,25.1,20.77,50.21,31.17,75.31c10.51,25.37,21.04,50.74,31.55,76.11c8.45,20.38,16.88,40.76,25.32,61.14
		c9.72,23.48,19.45,46.97,29.16,70.46c14.46,34.96,28.92,69.92,43.39,104.88c5.81,14.04,11.57,28.1,17.48,42.09
		c2.12,5.04,3.4,10.27,4.07,15.63c0.71,5.65,1.19,11.34,0.85,17.06c-0.58,9.81-2.13,19.35-6,28.55
		c-14.28,33.93-28.31,67.97-42.45,101.95c-14.87,35.74-29.77,71.47-44.65,107.21c-11.85,28.46-23.67,56.92-35.51,85.38
		c-5.83,14.03-11.72,28.03-17.47,42.09c-2.54,6.21-4.96,12.48-7.56,18.65c-2.71,6.45-5.57,12.86-8.27,19.32
		c-6.95,16.57-13.8,33.18-20.7,49.77c-0.56,1.35-1.14,2.7-1.83,3.98c-1.05,1.95-2.07,2.04-3.12,0.22c-1.09-1.89-2.08-3.86-2.94-5.87
		c-3.25-7.67-6.43-15.36-9.63-23.05c-9.94-23.87-19.87-47.74-29.81-71.61c-8.76-21.04-17.51-42.08-26.27-63.12
		c-9.93-23.87-19.87-47.74-29.79-71.62c-13.34-32.1-26.66-64.22-40.01-96.32c-12.85-30.89-25.74-61.76-38.57-92.65
		c-2.02-4.85-4.39-9.58-5.76-14.67C314.31,515.5,313.19,508.29,313.44,501.49z"/>
	<path class="st2" d="M503.89,775.77c-19.32,0-38.64,0-57.96,0c-1.9,0-3.79,0.01-5.63-0.65c-3.1-1.12-4.91-3.42-4.97-6.49
		c-0.05-3.11,1.64-5.5,4.7-6.68c1.96-0.75,4-0.78,6.05-0.78c15.22,0.01,30.44,0.05,45.67-0.01c7.27-0.03,6.18,1.03,6.2-6.28
		c0.05-22.96,0.03-45.93,0.03-68.89c0-5.59,0.13-5.32-4.94-3.86c-5.48,1.58-10.85,3.51-16.27,5.29c-5.56,1.83-11.14,3.58-16.96,4.41
		c-12.61,1.82-24.78,0.29-36.44-4.92c-7.36-3.29-14.39-7.23-21-11.82c-8.5-5.9-14.62-13.81-18.66-23.31
		c-3.49-8.2-4.79-16.73-4.52-25.68c0.29-9.53,2.33-18.52,6.31-27.12c2.91-6.27,6.71-11.97,11.16-17.26
		c8.21-9.77,18.15-17.34,29.46-23.15c3.79-1.95,7.39-4.17,10.74-6.79c3.97-3.1,7.18-6.81,9.39-11.41c2.79-5.8,5.65-11.56,8.65-17.25
		c2.32-4.42,5.16-8.49,8.79-11.97c2.46-2.36,5.23-4.26,8.37-5.53c9.05-3.64,18.44-5.72,28.23-5.42c6.9,0.21,13.61,1.73,20.26,3.53
		c5.68,1.53,11.09,3.68,16.11,6.78c5.85,3.61,10.41,8.39,13.91,14.32c5.2,8.81,10.3,17.7,16.15,26.11c0.42,0.6,0.85,1.19,1.26,1.79
		c2.93,4.28,6.56,7.6,11.24,10.12c10.85,5.85,20.74,13.09,29.64,21.7c9.36,9.06,14.23,20.09,15.71,32.91
		c1.61,13.92-0.94,27.05-6.76,39.66c-4.37,9.45-11.35,16.57-19.95,22.22c-8.77,5.76-18.22,9.92-28.57,11.88
		c-8.86,1.68-17.7,1.77-26.56-0.18c-6.01-1.33-11.86-3.12-17.69-5.06c-3.88-1.29-7.83-2.41-11.75-3.57
		c-0.69-0.21-1.42-0.33-2.15-0.38c-0.64-0.05-1.12,0.35-1.2,0.99c-0.1,0.87-0.12,1.75-0.12,2.62c-0.01,23.84-0.01,47.68,0,71.53
		c0,4.15-0.1,4.03,4.14,4.03c15.81,0,31.62,0,47.42,0c2.05,0,4.11-0.06,6.08,0.62c0.96,0.33,2,0.65,2.75,1.27
		c4.98,4.09,3,9.67-1.48,11.71c-1.45,0.66-3.04,1.04-4.69,1c-1.17-0.03-2.34,0-3.51,0C541.65,775.77,522.77,775.77,503.89,775.77z"
		/>
	<path class="st2" d="M494.46,375.33c0-1.57,0-2.87,0-4.17c0-17.25-0.03-34.5,0.03-51.76c0.01-2.54-0.46-4.86-1.42-7.21
		c-15.3-37.62-30.53-75.27-45.78-112.91c-2.08-5.14-4.21-10.27-6.3-15.41c-0.32-0.79-0.54-1.62-0.87-2.62
		c1.76-0.68,3.36-0.39,4.9-0.39c32.33-0.02,64.67-0.02,97-0.02c4.39,0,8.78,0,13.17,0c1.02,0,2.05-0.02,3.07,0.02
		c1.6,0.06,1.9,0.42,1.35,1.83c-1.84,4.77-3.71,9.53-5.59,14.29c-8.44,21.33-16.89,42.65-25.33,63.98
		c-6.99,17.66-13.96,35.32-20.99,52.96c-0.88,2.21-1.32,4.42-1.32,6.81c0.04,25,0.03,50,0.01,75c0,2.36,0.34,4.62,0.91,6.91
		c1.76,7.1,2.72,14.32,3.23,21.63c0.83,11.88-0.11,23.63-2.09,35.32c-1.08,6.37-3.19,12.44-6.24,18.17
		c-4.36,8.18-10.85,14.11-19.29,17.79c-8.51,3.7-17.08,3.38-25.46-0.57c-7.72-3.64-13.85-9.23-18.86-16.03
		c-10.39-14.11-17.51-29.7-20.05-47.12c-1.93-13.23-0.7-26.25,4.14-38.8c3.94-10.22,10.9-17.87,20.36-23.32
		c4.2-2.42,8.58-4.38,13.22-5.82c4.83-1.51,9.78-1.86,14.75-1.46c4.29,0.35,8.19,2.1,11.89,4.24c3.43,1.99,6.51,4.46,9.32,7.25
		C492.7,374.42,493.02,375.12,494.46,375.33z"/>
	<path class="st2" d="M338.31,487.35c-0.35-3.28,0.14-6.92,0.69-10.52c1.78-11.56,6.98-21.3,16.07-28.78
		c5.6-4.61,12.06-6.91,19.4-6.97c6.22-0.05,12.19,0.83,18.08,2.84c7.26,2.47,13.2,6.77,18.39,12.27
		c6.9,7.31,12.13,15.73,16.19,24.86c5.06,11.39,8.9,23.18,10.51,35.59c1.38,10.59-0.23,20.66-5.9,29.9
		c-2.01,3.27-4.48,6.19-7.47,8.54c-6.38,5.01-13.37,9.05-21.42,10.55c-10.93,2.03-21.26,0.13-30.6-6.09
		c-9.05-6.03-16.2-13.73-21-23.62c-5.38-11.09-9.87-22.46-11.84-34.7C338.69,496.76,338.11,492.28,338.31,487.35z"/>
	<path class="st2" d="M606.03,410.3c0.13,9.7-1.03,19.24-3.55,28.6c-4.72,17.54-13.55,32.87-25.53,46.43
		c-2.91,3.29-6.36,6.03-10.07,8.41c-4.01,2.57-8.41,4.08-13.1,4.71c-5.57,0.75-10.74-0.58-15.61-3.26
		c-5.35-2.95-9.59-7.14-13.17-12.03c-3.12-4.26-5.7-8.85-7.84-13.67c-0.7-1.58-1.15-3.31-1.52-5.01
		c-2.46-11.49-3.43-23.11-2.66-34.84c1.26-19.34,9.18-35.71,22.37-49.7c4.14-4.4,8.82-8.07,14.18-10.91
		c5.54-2.94,11.49-4.56,17.67-4.51c11,0.08,20.52,4.03,28.17,12.14c6.94,7.36,10.24,16.2,10.65,26.19
		C606.12,405.33,606.03,407.81,606.03,410.3z"/>
	<path class="st2" d="M666.73,491.27c-0.79,23.95-8.6,45.09-25.08,62.78c-3.79,4.07-7.93,7.75-12.42,11.04
		c-5.8,4.26-12.32,5.86-19.42,5.29c-8.44-0.68-15.72-4.24-22.35-9.27c-2.13-1.61-3.59-3.83-4.77-6.21
		c-3.54-7.12-5.92-14.57-6.87-22.5c-1.23-10.23,0.17-20.06,3.88-29.63c3.22-8.31,6.53-16.57,11.17-24.24
		c6.09-10.06,14.05-18.27,24.17-24.29c5.22-3.11,10.87-4.96,17.07-4.84c9.92,0.19,18.18,4.06,24.68,11.44
		c6.52,7.39,9.84,16.13,9.95,26.03C666.75,488.34,666.73,489.8,666.73,491.27z"/>
	<path class="st2" d="M505.07,786.16c16.1,0,32.2,0.01,48.29-0.01c2.06,0,4.11,0.04,6.01,0.96c2.61,1.26,4.07,3.4,4.06,6.26
		c-0.01,2.69-1.42,4.76-3.86,5.92c-1.17,0.56-2.48,0.86-3.76,1.11c-0.99,0.19-2.04,0.13-3.06,0.13c-31.9,0.01-63.81,0-95.71,0.01
		c-1.91,0-3.79-0.07-5.6-0.82c-2.91-1.2-4.59-3.44-4.63-6.29c-0.04-3.05,1.73-5.51,4.77-6.66c1.68-0.64,3.44-0.62,5.2-0.62
		c8.63,0.01,17.27,0,25.9,0C490.14,786.16,497.61,786.16,505.07,786.16z"/>
	<path class="st2" d="M505.53,826.77c-11.98,0-23.97,0-35.95,0c-1.9,0-3.79,0.02-5.63-0.63c-3.32-1.16-5.35-3.71-5.26-6.75
		c0.09-3.08,2.17-5.57,5.51-6.59c1.98-0.6,4.03-0.62,6.08-0.62c23.67,0.01,47.35,0.01,71.02,0.01c0.73,0,1.47-0.05,2.19,0.02
		c1.16,0.12,2.33,0.25,3.45,0.52c0.84,0.2,1.7,0.52,2.42,0.99c4.98,3.21,4.36,8.85,0.16,11.5c-1.52,0.96-3.2,1.42-4.98,1.48
		c-1.75,0.06-3.51,0.05-5.26,0.06C528.04,826.77,516.78,826.77,505.53,826.77z"/>
	<path class="st3" d="M505.67,851.53c-8.62,0-17.24,0-25.86,0c-1.9,0-3.78-0.06-5.6-0.8c-3.07-1.24-4.79-3.62-4.7-6.67
		c0.08-2.72,1.91-5.1,4.76-6.22c1.39-0.54,2.83-0.67,4.3-0.67c18.11,0,36.23,0,54.34,0c1.62,0,3.21,0.12,4.72,0.75
		c2.75,1.15,4.48,3.66,4.46,6.44c-0.02,2.79-1.8,5.26-4.53,6.39c-1.81,0.75-3.7,0.77-5.6,0.77
		C523.2,851.52,514.44,851.53,505.67,851.53z"/>
	<path class="st2" d="M505.24,877.76c-4.67,0-9.34,0-14,0c-1.76,0-3.49-0.09-5.15-0.78c-2.75-1.15-4.71-3.64-4.65-6.3
		c0.07-3.08,1.73-5.13,4.48-6.41c1.93-0.9,3.97-0.89,6-0.89c8.9-0.02,17.8-0.02,26.69,0c1.31,0,2.63,0.06,3.93,0.23
		c1.78,0.22,3.34,0.97,4.63,2.25c2.91,2.9,2.84,6.87-0.17,9.64c-1.83,1.68-4.04,2.25-6.44,2.26
		C515.45,877.75,510.34,877.75,505.24,877.76C505.24,877.75,505.24,877.75,505.24,877.76z"/>
	<path class="st1" d="M470.91,599.92c1.7,0.12,3.6,0.24,5.49,0.4c1.48,0.13,2.86,0.6,4.09,1.43c1.91,1.3,2.29,4.02,0.36,5.15
		c-2.75,1.61-3.18,3.94-3.18,6.68c0,7.16,0,14.32-0.06,21.47c-0.01,1.77,0.54,3.12,2.1,4.02c0.38,0.22,0.74,0.48,1.05,0.78
		c1.18,1.15,1.11,3.09-0.1,4.29c-0.76,0.75-1.7,1.16-2.69,1.39c-5.19,1.21-10.41,1.42-15.64,0.27c-0.84-0.18-1.67-0.57-2.39-1.04
		c-1.94-1.26-2.31-3.73-0.52-5.18c3.93-3.2,3.24-7.5,3.11-11.69c-0.02-0.78-0.67-1.34-1.43-1.46c-2.91-0.46-5.82-0.28-8.7,0.32
		c-0.77,0.16-1.3,0.83-1.36,1.56c-0.32,3.9-1.02,7.83,2.46,10.98c1.96,1.77,1.53,4.08-0.8,5.37c-1.01,0.56-2.14,0.97-3.27,1.2
		c-4.49,0.91-9,0.93-13.5,0.03c-1.29-0.26-2.54-0.69-3.61-1.5c-1.75-1.32-1.97-3.7-0.07-4.75c2.74-1.51,3.37-3.76,3.45-6.54
		c0.22-6.87,0.17-13.73,0.01-20.59c-0.05-2.21-0.6-3.9-2.75-5.02c-2.66-1.38-1.72-3.6-0.08-4.91c1.53-1.22,3.4-1.74,5.26-2.04
		c3.91-0.64,7.85-0.75,11.8-0.25c1.32,0.17,2.58,0.53,3.7,1.26c1.74,1.13,2.05,3.34,0.7,4.94c-0.19,0.22-0.39,0.46-0.63,0.61
		c-3.74,2.34-3.01,5.93-2.61,9.4c0.11,0.97,0.87,1.57,1.83,1.58c2.63,0.04,5.26,0.06,7.88-0.05c1.26-0.05,1.8-0.72,1.86-1.99
		c0.05-1.31,0.03-2.63-0.05-3.94c-0.11-1.96-0.64-3.71-2.5-4.82c-2.7-1.6-1.86-5.01,1.12-6.03c1.23-0.42,2.52-0.77,3.81-0.94
		C466.91,600.08,468.82,600.05,470.91,599.92z"/>
	<path class="st1" d="M517.5,624.01c-0.14-3.36-0.22-6.72-0.43-10.08c-0.19-3.05-1.1-5.67-4.15-7.18c-2.3-1.14-2.18-3.78,0.08-5.3
		c2.5-1.68,11.94-2.13,14.54-0.63c1.13,0.65,2.12,1.56,3.1,2.43c4.48,3.99,8.91,8.03,13.4,12.01c1.2,1.06,2.48,2.04,3.8,2.94
		c0.96,0.65,2.26,0.14,2.36-0.99c0.37-4.03,1.38-8.3-3.23-10.87c-0.68-0.38-0.92-1.11-1.04-1.85c-0.25-1.41,0.3-2.64,1.49-3.37
		c0.25-0.15,0.5-0.34,0.77-0.41c4.48-1.12,8.98-1.07,13.46-0.08c0.99,0.22,1.81,0.9,2.35,1.86c0.67,1.2,0.57,2.7-0.32,3.67
		c-0.2,0.21-0.41,0.45-0.66,0.56c-3.27,1.42-3.65,4.31-3.67,7.32c-0.05,6.29-0.05,12.58-0.07,18.86c-0.01,2.05-0.03,4.09-0.05,6.14
		c-0.01,1.78-0.4,3.5-1.05,5.13c-0.9,2.27-2.88,2.87-4.98,1.52c-0.97-0.63-1.83-1.45-2.69-2.24c-5.83-5.33-11.64-10.68-17.46-16.02
		c-0.97-0.89-1.89-1.83-3.13-2.36c-1.03-0.44-2.13-0.06-2.49,1.02c-0.28,0.82-0.49,1.69-0.53,2.55c-0.08,1.6-0.02,3.22,0.01,4.82
		c0.06,2.45,0.8,4.45,3,5.97c2.3,1.59,1.97,4.21-0.48,5.62c-0.75,0.43-1.6,0.74-2.44,0.93c-3.33,0.76-6.68,0.75-10.01-0.03
		c-0.84-0.2-1.69-0.53-2.42-0.98c-2.2-1.34-2.59-3.98-0.52-5.41c2.49-1.73,3.24-3.99,3.23-6.76c-0.01-2.92,0-5.85,0-8.77
		C517.33,624.02,517.42,624.01,517.5,624.01z"/>
	<path class="st1" d="M606.54,646.68c-2.62-0.19-5.24-0.37-7.86-0.57c-1.18-0.09-2.3-0.35-3.35-0.93c-2.1-1.15-2.27-3.92-0.28-4.95
		c0.39-0.2,0.79-0.38,1.17-0.6c0.86-0.5,1.16-1.27,0.97-2.22c-0.19-0.96-0.85-1.54-1.75-1.75c-0.84-0.21-1.72-0.33-2.59-0.36
		c-2.63-0.08-5.26-0.12-7.89-0.12c-0.87,0-1.77,0.07-2.6,0.31c-1.07,0.3-1.66,1.14-1.76,2.26c-0.09,0.98,0.36,1.67,1.25,2.08
		c0.27,0.12,0.54,0.22,0.81,0.33c1.01,0.42,1.79,1.11,1.81,2.25c0.04,1.48-0.86,2.45-2.16,3c-0.8,0.33-1.66,0.54-2.51,0.72
		c-3.64,0.76-7.27,0.46-10.89-0.14c-0.7-0.12-1.42-0.38-2.04-0.73c-1.87-1.04-1.98-3.52-0.23-4.68c0.48-0.32,1.02-0.56,1.56-0.78
		c1.73-0.69,2.86-1.99,3.64-3.62c3.49-7.22,7.02-14.43,9.64-22.03c0.86-2.5,1.16-5.09,1.38-7.73c0.48-5.71,5.46-8.5,10.75-6.15
		c1.79,0.8,3.15,2.09,4.38,3.55c1.89,2.25,3.37,4.76,4.64,7.4c3.67,7.62,7.37,15.23,10.97,22.89c1.2,2.55,2.29,4.97,5.35,5.93
		c1.47,0.46,1.44,2.8,0.19,4.11c-1.07,1.11-2.45,1.54-3.9,1.82C612.39,646.54,609.47,646.63,606.54,646.68z"/>
	<path class="st4" d="M407.47,646.71c-12.91,0.07-23.99-11.03-23.64-24.25c0.14-5.32,2.12-9.97,5.6-13.94
		c4.65-5.3,10.6-8.15,17.59-8.79c3.27-0.3,6.4,0.51,9.39,1.74c2.03,0.84,3.95,1.79,6.3,1.07c1.17-0.36,2.3,0.4,3.08,1.32
		c3.16,3.73,4.17,8.06,2.71,12.68c-1.39,4.4-6.48,5.22-9.33,1.64c-1.18-1.48-2.02-3.22-3.14-4.75c-2.12-2.9-4.98-4.36-8.63-4.36
		c-2.81,0.01-4.73,1.3-5.99,3.67c-0.41,0.76-0.77,1.62-0.87,2.47c-0.64,5.6,0.42,10.82,4.1,15.21c4.09,4.87,11.28,5.85,16.74,2.46
		c0.86-0.54,1.61-1.26,2.45-1.84c1.4-0.97,2.9-0.55,3.56,1.01c0.22,0.53,0.36,1.12,0.4,1.69c0.31,4.04-2.48,8.09-6.37,9.37
		c-1.52,0.5-3,1.13-4.5,1.71C414.05,645.93,411.11,646.74,407.47,646.71z"/>
	<path class="st4" d="M498.1,599.91c1.86,0.14,4.05,0.24,6.23,0.47c1.46,0.16,2.85,0.65,3.99,1.63c1.49,1.28,1.6,3.51-0.1,4.44
		c-2.89,1.57-3.43,4-3.58,6.94c-0.34,6.72-0.32,13.42,0.02,20.13c0.13,2.49,0.71,4.37,3.17,5.72c2.43,1.33,2.1,4.26-0.37,5.54
		c-0.9,0.46-1.89,0.85-2.89,0.99c-4.92,0.72-9.86,1.19-14.83,0.33c-1.31-0.23-2.57-0.56-3.68-1.32c-1.72-1.16-2.08-3.22-0.41-4.39
		c2.8-1.95,3.26-4.71,3.29-7.67c0.07-5.98,0.03-11.97,0.03-17.95c0-0.58-0.03-1.17-0.1-1.75c-0.27-2.24-1.05-4.08-2.97-5.59
		c-3-2.35-2.54-4.66,1.05-6c1.49-0.56,3.09-0.88,4.67-1.08C493.67,600.1,495.73,600.06,498.1,599.91z"/>
	<path class="st5" d="M453.08,567c0-3.94-0.04-7.89,0.01-11.83c0.03-2.1,1.21-2.99,3.08-2.1c1.22,0.58,2.34,1.07,3.71,1.01
		c1.72-0.08,2.12-0.37,2.2-1.96c0.06-1.31,0.01-2.63,0.08-3.94c0.09-1.66,0.53-2.07,2.09-2.13c2.1-0.08,2.51,0.3,2.6,2.5
		c0.05,1.31,0.02,2.63,0.06,3.94c0.03,1.07,0.65,1.55,1.68,1.56c1.16,0.01,2.35,0.2,3.33-0.69c0.58-0.52,1.3-0.57,2.05-0.59
		c1.09-0.02,1.72,0.42,1.83,1.38c0.03,0.29,0.06,0.58,0.05,0.87c-0.03,8.03-0.07,16.06-0.1,24.09c0,0.29-0.01,0.59-0.04,0.87
		c-0.14,1.22-1.35,1.99-2.57,1.58c-0.4-0.13-0.95-0.34-1.07-0.66c-0.73-1.87-2.29-1.45-3.71-1.43c-0.85,0.01-1.38,0.54-1.41,1.35
		c-0.08,2.33-0.06,4.67-0.12,7c-0.02,0.71,0.01,1.54-0.86,1.82c-1.13,0.36-2.34,0.49-3.34-0.24c-0.36-0.26-0.46-1.05-0.48-1.6
		c-0.06-2.19-0.01-4.38-0.08-6.57c-0.04-1.39-0.46-1.69-1.91-1.8c-1.53-0.11-2.86,0.02-3.69,1.64c-0.36,0.7-1.28,0.56-2,0.49
		c-0.62-0.06-1.15-0.36-1.24-1.02c-0.11-0.86-0.15-1.74-0.16-2.62C453.07,574.3,453.08,570.65,453.08,567
		C453.08,567,453.08,567,453.08,567z"/>
	<path class="st6" d="M529.27,567.57c0-5.4-0.01-10.81,0.01-16.21c0-1.02,0.03-2.04,0.13-3.06c0.09-0.88,0.74-1.18,1.54-1.2
		c0.44-0.01,1.05-0.13,1.28,0.1c1.93,1.91,4.34,1.29,6.61,1.36c1.75,0.05,3.51,0.04,5.26,0c1.85-0.04,3.68,0.25,5.36-1.19
		c1.03-0.88,2.61,0.22,2.74,1.69c0.12,1.45,0.18,2.92,0.18,4.38c0,10.22-0.02,20.45-0.05,30.67c0,1.02-0.03,2.05-0.18,3.06
		c-0.19,1.33-2.33,2.1-3,0.96c-0.94-1.61-2.16-1.67-3.66-1.66c-3.36,0.03-6.72,0.03-10.08,0c-1.11-0.01-1.93,0.27-2.43,1.4
		c-0.44,1-1.41,0.87-2.27,0.64c-0.83-0.21-1.12-0.88-1.13-1.66c-0.04-2.77-0.08-5.55-0.09-8.32c-0.01-3.65,0-7.3,0-10.95
		C529.41,567.57,529.34,567.57,529.27,567.57z"/>
	<path class="st1" d="M482.34,447.69c-2.63,0-5.26,0.02-7.9-0.01c-1.77-0.02-3.5-0.39-5.08-1.2c-2.69-1.38-2.81-4.79-0.34-5.91
		c0.53-0.24,1.07-0.49,1.55-0.81c1.59-1.08,1.4-3.52-0.42-4.22c-1.21-0.47-2.53-0.81-3.82-0.86c-3.36-0.14-6.73-0.11-10.09-0.1
		c-0.72,0-1.46,0.13-2.14,0.36c-1.21,0.4-1.98,1.24-2.06,2.56c-0.09,1.53,0.19,2.15,1.59,2.77c0.4,0.18,0.83,0.29,1.23,0.47
		c2.38,1.08,1.94,3.9,0.52,5.09c-1.16,0.97-2.53,1.51-3.99,1.69c-4.23,0.53-8.47,0.48-12.69-0.03c-0.99-0.12-2.01-0.49-2.89-0.96
		c-2.34-1.26-2.5-4.7-0.05-5.59c4.38-1.58,6.18-5.09,7.85-8.88c2.6-5.88,5.24-11.74,7.8-17.63c1.87-4.32,3.09-8.82,3.19-13.57
		c0.06-2.43,0.78-4.62,2.71-6.23c2.04-1.7,4.48-2.08,7.02-1.83c2.41,0.23,4.45,1.33,6.23,2.96c1.74,1.59,3.18,3.44,4.38,5.45
		c1.42,2.38,2.8,4.8,4.01,7.3c4.2,8.68,8.35,17.38,12.43,26.12c1.15,2.46,2.38,4.54,5.24,5.47c2.1,0.68,2.46,2.85,1.14,4.66
		c-0.71,0.98-1.69,1.59-2.82,2c-1.8,0.66-3.66,1.01-5.58,1.03c-2.34,0.02-4.68,0-7.02,0C482.34,447.74,482.34,447.72,482.34,447.69z
		"/>
	<path class="st4" d="M493.72,281.04c-1.27-3.07-2.28-5.48-3.26-7.9c-10.01-24.65-20.02-49.29-30.02-73.94
		c-1.6-3.94-1.58-3.97,2.7-3.98c9.07-0.01,18.15-0.01,27.22,0c0.88,0,1.75,0.03,2.63,0.07c0.85,0.04,1.35,0.52,1.41,1.35
		c0.07,0.87,0.05,1.75,0.05,2.63c0,25.88,0,51.77-0.02,77.65C494.44,278.03,494.71,279.2,493.72,281.04z"/>
	<path class="st1" d="M506.44,281.72c0-2.08,0-3.53,0-4.98c0-25.57,0-51.14,0-76.7c0-5.08-0.4-4.82,4.67-4.82
		c8.63,0,17.25,0,25.88,0.01c1.02,0,2.04,0.03,3.06,0.13c0.73,0.07,0.94,0.65,0.78,1.27c-0.18,0.7-0.47,1.38-0.73,2.06
		c-10.47,26.48-20.95,52.95-31.43,79.43C508.25,279.14,508.09,280.32,506.44,281.72z"/>
	<path class="st1" d="M386.97,475.47c5.41,0.28,10.81,0.08,16.21-0.33c4.98-0.38,6.53,0.62,8.3,5.18c0.8,2.05,1.3,4.18,1.17,6.42
		c-0.06,1.04-0.24,2.02-0.78,2.93c-1.24,2.12-3.75,2.62-5.6,1.02c-0.76-0.66-1.39-1.49-2.03-2.29c-1.82-2.29-4.21-3.53-7.05-4.06
		c-2.31-0.43-4.63-0.7-6.98-0.51c-2.37,0.2-3.35,1.06-4.01,3.34c-0.7,2.42-0.74,4.91-0.6,7.39c0.08,1.33,0.85,2.09,2.21,2.29
		c0.72,0.1,1.46,0.1,2.19,0.1c1.63,0.01,2.8-0.71,3.37-2.28c0.3-0.82,0.48-1.7,0.83-2.49c1.12-2.49,4.01-2.73,5.6-0.47
		c0.77,1.1,1.19,2.35,1.39,3.66c0.64,4.22,0.63,8.46-0.07,12.66c-0.21,1.27-0.77,2.5-1.32,3.69c-0.51,1.09-1.43,1.83-2.6,2.21
		c-1.18,0.38-2.53-0.1-2.91-1.24c-0.42-1.24-0.58-2.56-0.95-3.82c-0.78-2.66-3.75-4.12-6.3-3.1c-0.72,0.29-1.18,0.97-1.25,1.7
		c-0.27,3.2-0.44,6.42,0.04,9.61c0.32,2.15,1.43,3.82,3.76,4.35c0.43,0.1,0.84,0.25,1.25,0.4c1.24,0.45,1.81,1.38,1.87,2.67
		c0.06,1.43-0.36,2.58-1.71,3.27c-1.59,0.81-3.29,1.24-5.03,1.42c-5.97,0.61-11.95,0.94-17.94,0.19c-1.47-0.18-2.9-0.42-4.21-1.11
		c-2.66-1.41-2.9-4.76-0.47-6.47c0.35-0.25,0.78-0.4,1.17-0.59c2.05-0.99,2.94-2.78,3.2-4.91c0.19-1.59,0.32-3.2,0.33-4.81
		c0.05-7.16,0.05-14.32,0.06-21.48c0-0.15-0.01-0.29-0.01-0.44c0.08-3.44-0.71-6.34-4.27-7.88c-1.92-0.83-1.91-3.9-0.18-5.2
		c0.57-0.43,1.26-0.72,1.92-1.01c1.24-0.55,2.57-0.54,3.88-0.46c2.34,0.13,4.67,0.38,7,0.43
		C379.96,475.53,383.46,475.47,386.97,475.47z"/>
	<path class="st1" d="M544.42,448.53c-2.05,0-4.1,0.08-6.14-0.02c-2.06-0.1-4.06-0.59-5.87-1.63c-2.86-1.63-3.24-4.37-0.61-6.28
		c2.81-2.05,3.7-4.75,3.7-7.97c0.01-7.6,0-15.2,0-22.8c0-0.58,0.02-1.17-0.06-1.75c-0.35-2.68-1.11-5-3.78-6.49
		c-2.4-1.34-2.29-4.12-0.01-5.67c0.71-0.48,1.56-0.78,2.38-1.04c2.56-0.81,5.21-0.81,7.83-0.47c4.67,0.61,9.33,0.45,14,0.06
		c4.08-0.34,8.18-0.49,12.22,0.49c2.15,0.52,4.2,1.25,6.08,2.41c8.98,5.56,7,17.3,0.92,21.13c-0.62,0.39-1.22,0.8-1.78,1.27
		c-0.55,0.46-0.52,1.53,0.07,1.91c0.73,0.47,1.5,0.89,2.29,1.25c3.29,1.5,5.3,4.09,6.27,7.48c0.52,1.82,0.84,3.7,1.14,5.57
		c0.37,2.31,1.22,4.03,3.67,4.94c2.3,0.85,2.68,2.98,1.23,4.96c-0.99,1.36-2.41,2.12-3.96,2.61c-3.85,1.23-7.77,1.28-11.7,0.49
		c-3.87-0.78-6.53-3.11-8.11-6.7c-1.06-2.42-1.7-4.97-2.33-7.52c-0.49-1.98-0.78-4.02-1.75-5.86c-0.94-1.78-2.22-3.05-4.37-3.19
		c-1.41-0.09-2.38,0.49-2.51,1.83c-0.33,3.36-0.24,6.72,0.24,10.05c0.15,1.01,0.65,1.94,1.49,2.61c0.57,0.45,1.21,0.83,1.73,1.33
		c1.74,1.68,1.41,4.38-0.69,5.55c-1.55,0.87-3.27,1.3-5.03,1.38c-2.19,0.1-4.38,0.02-6.57,0.02
		C544.42,448.5,544.42,448.52,544.42,448.53z"/>
	<path class="st1" d="M623.15,476.39c2-0.16,5.48,0.9,8.85,2.4c2.04,0.9,4.01,1.65,6.32,0.97c1.54-0.45,2.83,0.34,3.93,1.42
		c0.95,0.93,1.7,2,2.23,3.22c1.25,2.86,1.84,5.84,1.67,8.96c-0.12,2.1-0.77,4-2.31,5.53c-2.49,2.47-6.16,2.53-8.61,0.03
		c-0.9-0.92-1.55-2.11-2.31-3.17c-1.1-1.54-2.1-3.17-3.33-4.61c-2.34-2.74-5.51-3.75-9-3.8c-3.04-0.04-5.32,1.39-6.81,4.02
		c-1.03,1.81-1.58,3.78-1.53,5.87c0.11,4.43,0.94,8.69,3.19,12.6c4.74,8.25,14.98,10.47,22.68,4.93c0.83-0.6,1.58-1.31,2.44-1.83
		c1.06-0.64,2.3-0.27,3.11,0.72c0.67,0.84,0.98,1.79,1,2.83c0.07,3.91-1.62,7.04-4.39,9.65c-0.41,0.39-0.97,0.75-1.51,0.85
		c-3.49,0.65-6.54,2.47-9.88,3.53c-16.46,5.2-36.03-7.15-35.99-26.92c0.01-6.7,2.56-12.53,7.14-17.41
		C605.83,480.02,612.91,476.69,623.15,476.39z"/>
	<path class="st7" d="M590.02,627.28c-1.33,0-1.76,0.01-2.19,0c-3.3-0.11-3.64-0.54-2.56-3.56c0.63-1.76,1.04-3.62,2.22-5.14
		c0.58-0.76,1.64-0.9,2.26-0.21c1.84,2.09,3.05,4.54,3.91,7.15c0.27,0.8-0.3,1.43-1.09,1.55
		C591.44,627.25,590.28,627.26,590.02,627.28z"/>
	<path class="st8" d="M462.13,566.82c0,2.32,0.04,4.64-0.02,6.96c-0.04,1.44-0.46,1.84-1.79,1.9c-0.72,0.03-1.45,0.01-2.17-0.08
		c-0.62-0.08-1.02-0.51-1.16-1.11c-0.09-0.42-0.15-0.86-0.15-1.29c-0.01-4.21-0.04-8.41,0.01-12.62c0.03-2.22,0.4-2.54,2.51-2.56
		c0.43,0,0.87,0.02,1.3,0.05c0.83,0.07,1.36,0.52,1.38,1.36c0.03,2.46,0.01,4.93,0.01,7.39
		C462.08,566.82,462.11,566.82,462.13,566.82z"/>
	<path class="st9" d="M471.75,567.07c0,2.18,0.04,4.35-0.01,6.53c-0.05,1.67-0.45,2.01-2.1,2.05c-0.43,0.01-0.87-0.01-1.3-0.04
		c-0.85-0.06-1.35-0.58-1.39-1.37c-0.08-2.03-0.09-4.06-0.08-6.09c0.01-2.9,0.03-5.8,0.09-8.7c0.02-0.83,0.56-1.29,1.38-1.34
		c0.58-0.04,1.16-0.04,1.74-0.03c1.04,0.02,1.63,0.55,1.64,1.59c0.02,2.47,0.01,4.93,0.01,7.4
		C471.73,567.07,471.74,567.07,471.75,567.07z"/>
	<path class="st2" d="M548.78,567.88c0,4.08,0.03,8.16-0.01,12.24c-0.03,2.32-0.32,2.64-2.44,2.66c-3.79,0.05-7.58,0.03-11.37-0.02
		c-1.39-0.02-1.79-0.49-1.91-1.84c-0.04-0.43-0.03-0.87-0.03-1.31c0.01-8.16-0.01-16.32,0.03-24.48c0.01-2.63,0.24-2.87,2.65-2.91
		c3.64-0.05,7.29-0.04,10.94,0.01c1.66,0.02,2.1,0.45,2.12,2.09c0.05,4.52,0.02,9.03,0.02,13.55
		C548.77,567.88,548.77,567.88,548.78,567.88z"/>
	<path class="st10" d="M462.12,425.2c-6.4,0-6.27,0-3.97-5.93c0.52-1.35,1.07-2.7,1.78-3.95c0.69-1.24,2.05-1.41,2.88-0.37
		c2.09,2.63,3.75,5.52,4.59,8.8c0.16,0.64-0.29,1.16-0.93,1.22C465.02,425.1,463.57,425.13,462.12,425.2z"/>
	<path class="st10" d="M561.13,409.95c-0.16,1.14-0.2,2.31-0.51,3.41c-0.79,2.81-2.87,4.27-5.81,4.22
		c-1.28-0.02-2.21-0.84-2.16-2.19c0.12-3.47,0.3-6.93,0.58-10.39c0.12-1.53,1.11-2.2,2.68-2.24c1.95-0.04,3.35,0.82,4.19,2.54
		C560.8,406.75,561.17,408.3,561.13,409.95z"/>
	<path class="st11" d="M542.94,571.55c-0.11,1.1-0.23,1.63-0.21,2.16c0.08,2.13,0.09,2.13,2.1,2.63c0.56,0.14,1.28,0.08,1.66,0.42
		c0.36,0.32,0.43,1.03,0.49,1.58c0.06,0.61-0.22,1.23-0.86,1.32c-1,0.15-2.03,0.18-3.04,0.18c-2.33,0-4.67-0.01-7-0.08
		c-0.85-0.02-1.28-0.61-1.27-1.45c0.01-0.71-0.05-1.51,0.87-1.77c0.56-0.16,1.14-0.26,1.71-0.35c1.21-0.19,1.74-0.9,1.72-2.1
		c-0.02-1.9,0.04-3.79-0.01-5.69c-0.04-1.62-0.25-1.79-2.07-2.15c-0.43-0.08-0.88-0.05-1.3-0.16c-0.88-0.24-0.95-0.97-0.94-1.72
		c0.02-0.77,0.19-1.46,1.12-1.58c0.58-0.08,1.16-0.08,1.74-0.15c1.08-0.14,1.41-0.85,1.42-1.84c0-0.97-0.26-1.73-1.36-1.86
		c-0.58-0.07-1.17-0.05-1.74-0.16c-0.92-0.18-1.27-0.86-1.16-1.98c0.08-0.85,0.55-1.36,1.38-1.37c3.21-0.02,6.41-0.02,9.62,0.03
		c0.89,0.01,1.16,0.73,1.2,1.52c0.03,0.76-0.05,1.52-0.91,1.75c-0.7,0.18-1.45,0.14-2.16,0.27c-0.86,0.16-1.14,0.79-1.15,1.59
		c-0.02,0.92,0.09,1.79,1.2,2c0.57,0.11,1.16,0.11,1.74,0.16c1.17,0.11,1.32,0.93,1.31,1.87c-0.01,0.79-0.28,1.41-1.17,1.55
		c-0.29,0.04-0.58,0.04-0.87,0.08c-0.85,0.11-1.91,0.08-1.93,1.24c-0.01,0.88,0.91,1.01,1.62,1.16c0.81,0.17,1.24,0.67,1.43,1.44
		c0.25,0.99,0.56,1.96,0.79,2.95c0.14,0.6,0.01,1.17-0.66,1.41c-0.59,0.21-1.21,0.14-1.6-0.35
		C544.11,573.45,543.7,572.71,542.94,571.55z"/>
</g>
</svg>
